<mxfile host="app.diagrams.net" modified="2023-04-12T09:45:40.367Z" agent="Mozilla/5.0 (Macintosh; Intel Mac OS X 10_15_7) AppleWebKit/537.36 (KHTML, like Gecko) Chrome/112.0.0.0 Safari/537.36" etag="SWm9sp2riOGIzNEVGBA-" version="21.1.5" type="github">
  <diagram name="第 1 页" id="6C8LDCqFkHniLUepePuR">
    <mxGraphModel dx="1546" dy="782" grid="1" gridSize="10" guides="1" tooltips="1" connect="1" arrows="1" fold="1" page="1" pageScale="1" pageWidth="3300" pageHeight="4681" math="0" shadow="0">
      <root>
        <mxCell id="0" />
        <mxCell id="1" parent="0" />
        <mxCell id="AYeVIFecaO4NZ5Z84dO0-1" value="" style="shape=cylinder3;whiteSpace=wrap;html=1;boundedLbl=1;backgroundOutline=1;size=15;rotation=90;" vertex="1" parent="1">
          <mxGeometry x="780" y="260" width="60" height="200" as="geometry" />
        </mxCell>
        <mxCell id="AYeVIFecaO4NZ5Z84dO0-3" value="DI Kafka" style="text;html=1;strokeColor=none;fillColor=none;align=center;verticalAlign=middle;whiteSpace=wrap;rounded=0;" vertex="1" parent="1">
          <mxGeometry x="770" y="345" width="60" height="30" as="geometry" />
        </mxCell>
        <mxCell id="AYeVIFecaO4NZ5Z84dO0-4" value="prioritisation script" style="rounded=1;whiteSpace=wrap;html=1;" vertex="1" parent="1">
          <mxGeometry x="490" y="330" width="120" height="60" as="geometry" />
        </mxCell>
        <mxCell id="AYeVIFecaO4NZ5Z84dO0-5" value="" style="endArrow=classic;html=1;rounded=0;exitX=1;exitY=0.5;exitDx=0;exitDy=0;entryX=0.5;entryY=1;entryDx=0;entryDy=0;entryPerimeter=0;" edge="1" parent="1" source="AYeVIFecaO4NZ5Z84dO0-4" target="AYeVIFecaO4NZ5Z84dO0-1">
          <mxGeometry width="50" height="50" relative="1" as="geometry">
            <mxPoint x="760" y="430" as="sourcePoint" />
            <mxPoint x="810" y="380" as="targetPoint" />
          </mxGeometry>
        </mxCell>
        <mxCell id="AYeVIFecaO4NZ5Z84dO0-6" value="msg" style="ellipse;shape=cloud;whiteSpace=wrap;html=1;" vertex="1" parent="1">
          <mxGeometry x="620" y="320" width="70" height="40" as="geometry" />
        </mxCell>
        <mxCell id="AYeVIFecaO4NZ5Z84dO0-7" value="" style="endArrow=classic;html=1;rounded=0;exitX=0.5;exitY=0;exitDx=0;exitDy=0;exitPerimeter=0;" edge="1" parent="1" source="AYeVIFecaO4NZ5Z84dO0-1">
          <mxGeometry width="50" height="50" relative="1" as="geometry">
            <mxPoint x="760" y="430" as="sourcePoint" />
            <mxPoint x="1000" y="360" as="targetPoint" />
          </mxGeometry>
        </mxCell>
        <mxCell id="AYeVIFecaO4NZ5Z84dO0-13" value="write" style="text;html=1;strokeColor=none;fillColor=none;align=center;verticalAlign=middle;whiteSpace=wrap;rounded=0;" vertex="1" parent="1">
          <mxGeometry x="920" y="325" width="60" height="30" as="geometry" />
        </mxCell>
        <mxCell id="AYeVIFecaO4NZ5Z84dO0-14" value="" style="endArrow=classic;html=1;rounded=0;" edge="1" parent="1">
          <mxGeometry width="50" height="50" relative="1" as="geometry">
            <mxPoint x="660" y="325" as="sourcePoint" />
            <mxPoint x="710" y="275" as="targetPoint" />
          </mxGeometry>
        </mxCell>
        <mxCell id="AYeVIFecaO4NZ5Z84dO0-15" value="task_id, user_id, root_cause,date" style="rounded=0;whiteSpace=wrap;html=1;" vertex="1" parent="1">
          <mxGeometry x="710" y="250" width="120" height="60" as="geometry" />
        </mxCell>
        <mxCell id="AYeVIFecaO4NZ5Z84dO0-20" value="Hive" style="swimlane;whiteSpace=wrap;html=1;" vertex="1" parent="1">
          <mxGeometry x="1000" y="280" width="140" height="160" as="geometry" />
        </mxCell>
        <mxCell id="AYeVIFecaO4NZ5Z84dO0-21" value="task_id" style="text;html=1;align=center;verticalAlign=middle;resizable=0;points=[];autosize=1;strokeColor=none;fillColor=none;" vertex="1" parent="AYeVIFecaO4NZ5Z84dO0-20">
          <mxGeometry y="30" width="60" height="30" as="geometry" />
        </mxCell>
        <mxCell id="AYeVIFecaO4NZ5Z84dO0-22" value="user_id" style="text;html=1;align=center;verticalAlign=middle;resizable=0;points=[];autosize=1;strokeColor=none;fillColor=none;" vertex="1" parent="AYeVIFecaO4NZ5Z84dO0-20">
          <mxGeometry y="65" width="60" height="30" as="geometry" />
        </mxCell>
        <mxCell id="AYeVIFecaO4NZ5Z84dO0-23" value="root_cause" style="text;html=1;align=center;verticalAlign=middle;resizable=0;points=[];autosize=1;strokeColor=none;fillColor=none;" vertex="1" parent="AYeVIFecaO4NZ5Z84dO0-20">
          <mxGeometry y="100" width="80" height="30" as="geometry" />
        </mxCell>
        <mxCell id="AYeVIFecaO4NZ5Z84dO0-24" value="date" style="text;html=1;align=center;verticalAlign=middle;resizable=0;points=[];autosize=1;strokeColor=none;fillColor=none;" vertex="1" parent="AYeVIFecaO4NZ5Z84dO0-20">
          <mxGeometry y="130" width="50" height="30" as="geometry" />
        </mxCell>
      </root>
    </mxGraphModel>
  </diagram>
</mxfile>
